<svg width="1760" height="40" viewBox="0 0 1760 40" fill="none" xmlns="http://www.w3.org/2000/svg">
<circle cx="20" cy="20" r="20" fill="#CEEFD0"/>
<circle cx="340" cy="20" r="20" fill="#CEEFD0"/>
<circle cx="660" cy="20" r="20" fill="#CEEFD0"/>
<circle cx="980" cy="20" r="20" fill="#CEEFD0"/>
<circle cx="1300" cy="20" r="20" fill="#CEEFD0"/>
<circle cx="180" cy="20" r="20" fill="#CEEFD0"/>
<circle cx="820" cy="20" r="20" fill="#CEEFD0"/>
<circle cx="500" cy="20" r="20" fill="#CEEFD0"/>
<circle cx="1140" cy="20" r="20" fill="#CEEFD0"/>
<circle cx="1460" cy="20" r="20" fill="#CEEFD0"/>
<circle cx="740" cy="20" r="20" fill="#CEEFD0"/>
<circle cx="100" cy="20" r="20" fill="#CEEFD0"/>
<circle cx="420" cy="20" r="20" fill="#CEEFD0"/>
<circle cx="900" cy="20" r="20" fill="#CEEFD0"/>
<circle cx="1060" cy="20" r="20" fill="#CEEFD0"/>
<circle cx="1380" cy="20" r="20" fill="#CEEFD0"/>
<circle cx="260" cy="20" r="20" fill="#CEEFD0"/>
<circle cx="700" cy="20" r="20" fill="#CEEFD0"/>
<circle cx="580" cy="20" r="20" fill="#CEEFD0"/>
<circle cx="1220" cy="20" r="20" fill="#CEEFD0"/>
<circle cx="1540" cy="20" r="20" fill="#CEEFD0"/>
<circle cx="1660" cy="20" r="20" fill="#CEEFD0"/>
<circle cx="860" cy="20" r="20" fill="#CEEFD0"/>
<circle cx="60" cy="20" r="20" fill="#CEEFD0"/>
<circle cx="380" cy="20" r="20" fill="#CEEFD0"/>
<circle cx="780" cy="20" r="20" fill="#CEEFD0"/>
<circle cx="1020" cy="20" r="20" fill="#CEEFD0"/>
<circle cx="1340" cy="20" r="20" fill="#CEEFD0"/>
<circle cx="220" cy="20" r="20" fill="#CEEFD0"/>
<circle cx="940" cy="20" r="20" fill="#CEEFD0"/>
<circle cx="540" cy="20" r="20" fill="#CEEFD0"/>
<circle cx="1180" cy="20" r="20" fill="#CEEFD0"/>
<circle cx="1500" cy="20" r="20" fill="#CEEFD0"/>
<circle cx="1620" cy="20" r="20" fill="#CEEFD0"/>
<circle cx="140" cy="20" r="20" fill="#CEEFD0"/>
<circle cx="460" cy="20" r="20" fill="#CEEFD0"/>
<circle cx="1100" cy="20" r="20" fill="#CEEFD0"/>
<circle cx="1420" cy="20" r="20" fill="#CEEFD0"/>
<circle cx="300" cy="20" r="20" fill="#CEEFD0"/>
<circle cx="620" cy="20" r="20" fill="#CEEFD0"/>
<circle cx="1260" cy="20" r="20" fill="#CEEFD0"/>
<circle cx="1580" cy="20" r="20" fill="#CEEFD0"/>
<circle cx="1700" cy="20" r="20" fill="#CEEFD0"/>
<circle cx="1740" cy="20" r="20" fill="#CEEFD0"/>
</svg>
