<svg width="1760" height="248" viewBox="0 0 1760 248" fill="none" xmlns="http://www.w3.org/2000/svg">
<circle cx="20" cy="20" r="20" fill="black"/>
<circle cx="340" cy="20" r="20" fill="black"/>
<circle cx="660" cy="20" r="20" fill="black"/>
<circle cx="980" cy="20" r="20" fill="black"/>
<circle cx="1300" cy="20" r="20" fill="black"/>
<circle cx="180" cy="20" r="20" fill="black"/>
<circle cx="820" cy="20" r="20" fill="black"/>
<circle cx="500" cy="20" r="20" fill="black"/>
<circle cx="1140" cy="20" r="20" fill="black"/>
<circle cx="1460" cy="20" r="20" fill="black"/>
<circle cx="740" cy="20" r="20" fill="black"/>
<circle cx="100" cy="20" r="20" fill="black"/>
<circle cx="420" cy="20" r="20" fill="black"/>
<circle cx="900" cy="20" r="20" fill="black"/>
<circle cx="1060" cy="20" r="20" fill="black"/>
<circle cx="1380" cy="20" r="20" fill="black"/>
<circle cx="260" cy="20" r="20" fill="black"/>
<circle cx="700" cy="20" r="20" fill="black"/>
<circle cx="580" cy="20" r="20" fill="black"/>
<circle cx="1220" cy="20" r="20" fill="black"/>
<circle cx="1540" cy="20" r="20" fill="black"/>
<circle cx="1660" cy="20" r="20" fill="black"/>
<circle cx="860" cy="20" r="20" fill="black"/>
<circle cx="60" cy="20" r="20" fill="black"/>
<circle cx="380" cy="20" r="20" fill="black"/>
<circle cx="780" cy="20" r="20" fill="black"/>
<circle cx="1020" cy="20" r="20" fill="black"/>
<circle cx="1340" cy="20" r="20" fill="black"/>
<circle cx="220" cy="20" r="20" fill="black"/>
<circle cx="940" cy="20" r="20" fill="black"/>
<circle cx="540" cy="20" r="20" fill="black"/>
<circle cx="1180" cy="20" r="20" fill="black"/>
<circle cx="1500" cy="20" r="20" fill="black"/>
<circle cx="1620" cy="20" r="20" fill="black"/>
<circle cx="140" cy="20" r="20" fill="black"/>
<circle cx="460" cy="20" r="20" fill="black"/>
<circle cx="1100" cy="20" r="20" fill="black"/>
<circle cx="1420" cy="20" r="20" fill="black"/>
<circle cx="300" cy="20" r="20" fill="black"/>
<circle cx="620" cy="20" r="20" fill="black"/>
<circle cx="1260" cy="20" r="20" fill="black"/>
<circle cx="1580" cy="20" r="20" fill="black"/>
<circle cx="1700" cy="20" r="20" fill="black"/>
<circle cx="1740" cy="20" r="20" fill="black"/>
<circle cx="20" cy="20" r="20" fill="black"/>
<circle cx="340" cy="20" r="20" fill="black"/>
<circle cx="660" cy="20" r="20" fill="black"/>
<circle cx="980" cy="20" r="20" fill="black"/>
<circle cx="1300" cy="20" r="20" fill="black"/>
<circle cx="180" cy="20" r="20" fill="black"/>
<circle cx="820" cy="20" r="20" fill="black"/>
<circle cx="500" cy="20" r="20" fill="black"/>
<circle cx="1140" cy="20" r="20" fill="black"/>
<circle cx="1460" cy="20" r="20" fill="black"/>
<circle cx="740" cy="20" r="20" fill="black"/>
<circle cx="100" cy="20" r="20" fill="black"/>
<circle cx="420" cy="20" r="20" fill="black"/>
<circle cx="900" cy="20" r="20" fill="black"/>
<circle cx="1060" cy="20" r="20" fill="black"/>
<circle cx="260" cy="20" r="20" fill="black"/>
<circle cx="700" cy="20" r="20" fill="black"/>
<circle cx="580" cy="20" r="20" fill="black"/>
<circle cx="1220" cy="20" r="20" fill="black"/>
<circle cx="1540" cy="20" r="20" fill="black"/>
<circle cx="1660" cy="20" r="20" fill="black"/>
<circle cx="860" cy="20" r="20" fill="black"/>
<circle cx="60" cy="20" r="20" fill="black"/>
<circle cx="380" cy="20" r="20" fill="black"/>
<circle cx="780" cy="20" r="20" fill="black"/>
<circle cx="1020" cy="20" r="20" fill="black"/>
<circle cx="1340" cy="20" r="20" fill="black"/>
<circle cx="220" cy="20" r="20" fill="black"/>
<circle cx="940" cy="20" r="20" fill="black"/>
<circle cx="540" cy="20" r="20" fill="black"/>
<circle cx="1180" cy="20" r="20" fill="black"/>
<circle cx="1500" cy="20" r="20" fill="black"/>
<circle cx="1620" cy="20" r="20" fill="black"/>
<circle cx="140" cy="20" r="20" fill="black"/>
<circle cx="460" cy="20" r="20" fill="black"/>
<circle cx="1100" cy="20" r="20" fill="black"/>
<circle cx="1420" cy="20" r="20" fill="black"/>
<circle cx="300" cy="20" r="20" fill="black"/>
<circle cx="620" cy="20" r="20" fill="black"/>
<circle cx="1260" cy="20" r="20" fill="black"/>
<circle cx="1580" cy="20" r="20" fill="black"/>
<circle cx="1700" cy="20" r="20" fill="black"/>
<circle cx="1740" cy="20" r="20" fill="black"/>
<circle cx="20" cy="60" r="20" fill="black"/>
<circle cx="340" cy="60" r="20" fill="black"/>
<circle cx="660" cy="60" r="20" fill="black"/>
<circle cx="980" cy="60" r="20" fill="#FFE1E1"/>
<circle cx="1300" cy="60" r="20" fill="black"/>
<circle cx="180" cy="60" r="20" fill="black"/>
<circle cx="820" cy="60" r="20" fill="#FFD6C0"/>
<circle cx="500" cy="60" r="20" fill="#CEEFD0"/>
<circle cx="1140" cy="60" r="20" fill="black"/>
<circle cx="1460" cy="60" r="20" fill="black"/>
<circle cx="740" cy="60" r="20" fill="black"/>
<circle cx="100" cy="60" r="20" fill="black"/>
<circle cx="420" cy="60" r="20" fill="black"/>
<circle cx="900" cy="60" r="20" fill="black"/>
<circle cx="1380" cy="60" r="20" fill="black"/>
<circle cx="260" cy="60" r="20" fill="black"/>
<circle cx="700" cy="60" r="20" fill="black"/>
<circle cx="580" cy="60" r="20" fill="black"/>
<circle cx="1220" cy="60" r="20" fill="black"/>
<circle cx="1540" cy="60" r="20" fill="black"/>
<circle cx="1660" cy="60" r="20" fill="black"/>
<circle cx="860" cy="60" r="20" fill="black"/>
<circle cx="60" cy="60" r="20" fill="black"/>
<circle cx="380" cy="60" r="20" fill="black"/>
<circle cx="780" cy="60" r="20" fill="black"/>
<circle cx="1020" cy="60" r="20" fill="black"/>
<circle cx="1340" cy="60" r="20" fill="black"/>
<circle cx="220" cy="60" r="20" fill="black"/>
<circle cx="940" cy="60" r="20" fill="black"/>
<circle cx="540" cy="60" r="20" fill="black"/>
<circle cx="1180" cy="60" r="20" fill="black"/>
<circle cx="1500" cy="60" r="20" fill="black"/>
<circle cx="1620" cy="60" r="20" fill="#CEEFD0"/>
<circle cx="140" cy="60" r="20" fill="black"/>
<circle cx="460" cy="60" r="20" fill="black"/>
<circle cx="1100" cy="60" r="20" fill="black"/>
<circle cx="1420" cy="60" r="20" fill="black"/>
<circle cx="620" cy="60" r="20" fill="black"/>
<circle cx="1260" cy="60" r="20" fill="black"/>
<circle cx="1700" cy="60" r="20" fill="black"/>
<circle cx="1740" cy="60" r="20" fill="black"/>
<circle cx="20" cy="100" r="20" fill="black"/>
<circle cx="340" cy="100" r="20" fill="black"/>
<circle cx="660" cy="100" r="20" fill="black"/>
<circle cx="980" cy="100" r="20" fill="black"/>
<circle cx="1300" cy="100" r="20" fill="black"/>
<circle cx="332" cy="148" r="20" fill="#FFE1E1"/>
<circle cx="332" cy="188" r="20" fill="black"/>
<circle cx="180" cy="100" r="20" fill="#CEEFD0"/>
<circle cx="820" cy="100" r="20" fill="black"/>
<circle cx="500" cy="100" r="20" fill="black"/>
<circle cx="1140" cy="100" r="20" fill="#CEEFD0"/>
<circle cx="1460" cy="100" r="20" fill="black"/>
<circle cx="740" cy="100" r="20" fill="black"/>
<circle cx="740" cy="140" r="20" fill="black"/>
<circle cx="100" cy="100" r="20" fill="black"/>
<circle cx="420" cy="100" r="20" fill="black"/>
<circle cx="1060" cy="100" r="20" fill="black"/>
<circle cx="1060" cy="140" r="20" fill="#FFD6C0"/>
<circle cx="1380" cy="100" r="20" fill="#FFD6C0"/>
<circle cx="260" cy="100" r="20" fill="black"/>
<circle cx="700" cy="100" r="20" fill="black"/>
<circle cx="580" cy="100" r="20" fill="black"/>
<circle cx="1220" cy="100" r="20" fill="black"/>
<circle cx="1540" cy="100" r="20" fill="black"/>
<circle cx="1540" cy="140" r="20" fill="black"/>
<circle cx="1660" cy="100" r="20" fill="black"/>
<circle cx="860" cy="100" r="20" fill="black"/>
<circle cx="380" cy="100" r="20" fill="#FFD6C0"/>
<circle cx="780" cy="100" r="20" fill="black"/>
<circle cx="780" cy="180" r="20" fill="#CEEFD0"/>
<circle cx="1020" cy="100" r="20" fill="black"/>
<circle cx="1340" cy="100" r="20" fill="black"/>
<circle cx="372" cy="148" r="20" fill="black"/>
<circle cx="372" cy="228" r="20" fill="black"/>
<circle cx="220" cy="100" r="20" fill="black"/>
<circle cx="940" cy="100" r="20" fill="black"/>
<circle cx="540" cy="100" r="20" fill="black"/>
<circle cx="1180" cy="100" r="20" fill="black"/>
<circle cx="1500" cy="100" r="20" fill="black"/>
<circle cx="1620" cy="100" r="20" fill="black"/>
<circle cx="140" cy="100" r="20" fill="black"/>
<circle cx="460" cy="100" r="20" fill="black"/>
<circle cx="1100" cy="100" r="20" fill="black"/>
<circle cx="1420" cy="100" r="20" fill="black"/>
<circle cx="300" cy="100" r="20" fill="black"/>
<circle cx="620" cy="100" r="20" fill="#FFE1E1"/>
<circle cx="1260" cy="100" r="20" fill="black"/>
<circle cx="1580" cy="100" r="20" fill="black"/>
<circle cx="1580" cy="180" r="20" fill="#FBC5C4"/>
<circle cx="1700" cy="100" r="20" fill="black"/>
<circle cx="1740" cy="100" r="20" fill="black"/>
</svg>
